<svg xmlns="http://www.w3.org/2000/svg" version="1.1" xmlns:xlink="http://www.w3.org/1999/xlink" xmlns:svgjs="http://svgjs.com/svgjs" width="3880" height="2440" preserveAspectRatio="none" viewBox="0 0 3880 2440"><g mask="url(&quot;#SvgjsMask1092&quot;)" fill="none"><rect width="3880" height="2440" x="0" y="0" fill="rgba(21, 111, 203, 1)"></rect><path d="M0,1588.877C319.1,1594.237,665.689,1625.579,926.394,1441.496C1184.413,1259.31,1243.714,915.071,1366.445,624.034C1485.341,342.09,1679.619,67.628,1633.303,-234.834C1587.093,-536.603,1351.058,-770.394,1122.008,-972.226C914.152,-1155.383,644.206,-1218.647,390.507,-1329.946C94.138,-1459.965,-171.487,-1712.49,-493.586,-1680.998C-829.884,-1648.118,-1100.108,-1399.139,-1339.622,-1160.789C-1593.493,-908.152,-1852.633,-628.189,-1907.233,-274.219C-1962.022,80.974,-1817.276,437.104,-1633.764,746.115C-1462.628,1034.287,-1204.471,1257.06,-906.608,1410.71C-627.237,1554.821,-314.306,1583.598,0,1588.877" fill="#10569c"></path><path d="M3880 3883.984C4163.75 3955.127 4512.186 3958.574 4731.558 3765.05 4951.7119999999995 3570.8360000000002 4834.785 3198.77 4958.521 2932.544 5083.5689999999995 2663.496 5462.6849999999995 2510.422 5452.496 2213.909 5442.455 1921.712 5110.47 1760.382 4910.901 1546.719 4719.629 1341.939 4576.852 1061.188 4306.611 987.096 4037.299 913.259 3754.929 1037.591 3504.488 1161.124 3282.99 1270.38 3108.564 1446.379 2966.26 1648.24 2834.599 1835.004 2756.982 2047.714 2720.462 2273.284 2683.411 2502.136 2653.842 2745.169 2754.886 2953.822 2855.093 3160.748 3087.585 3250.801 3264.783 3397.2960000000003 3470.479 3567.35 3621.125 3819.078 3880 3883.984" fill="#2b89e9"></path></g><defs><mask id="SvgjsMask1092"><rect width="3880" height="2440" fill="#ffffff"></rect></mask></defs></svg>